<svg width="825" height="644" viewBox="0 0 825 644" fill="none" xmlns="http://www.w3.org/2000/svg">
<path d="M332.51 302.634C346.883 298.901 362.488 302.2 375.801 308.833C393.661 317.79 407.932 332.533 419.49 348.681C449.988 411.322 438.873 481.588 462.666 542.618C477.612 585.005 505.48 628.846 551.661 629.799C561.424 630.521 571.416 630.009 581.495 629C642.38 619.861 671.519 539.879 654.236 481.874C637.868 428.177 600.857 378.995 550.185 351.996C537.175 345.289 523.142 340.351 508.536 338.161C523.246 339.488 537.703 343.664 551.258 349.772C604.189 374.504 644.563 423.184 663.443 479.031C683.238 541.11 656.995 628.639 582.814 641.869C572.306 642.962 561.588 643.565 550.7 642.764C497.223 641.587 465.592 589.712 451.649 546.547C428.315 482.099 440.942 410.76 415.07 351.692C404.544 335.505 391.484 320.612 374.642 311.014C362.078 303.913 347.056 299.771 332.51 302.634ZM332.511 302.634C326.522 316.189 320.632 329.11 314.349 342.35C286.237 401.31 254.725 459.024 215.047 511.636C175.417 560.265 126.122 624.514 50.8771 613.109C44.9557 611.595 39.2198 609.294 33.8898 606.323C-1.59151 590.255 -7.37096 541.474 8.02551 510.969C21.7699 478.592 44.5996 451.797 70.3488 429.293C115.146 391.541 167.484 363.532 223.358 347.897C237.409 344.32 252.044 341.384 266.461 342.578C252.018 342.257 237.747 345.984 224.031 350.268C169.638 368.657 119.113 398.616 76.7863 436.529C52.5915 458.923 31.295 485.454 19.2013 515.407C6.13935 544.861 10.9074 581.007 40.2589 594.972C44.664 597.413 49.3426 599.282 54.1866 600.521C115.434 611.339 167.291 552.717 206.883 505.299C247.284 454.628 280.965 398.536 312.146 341.244C319.115 328.374 325.74 315.82 332.511 302.634ZM488.99 1.25024C499.936 -3.61855 509.135 6.58807 503.419 17.1165C456.163 99.3922 407.622 180.958 357.799 261.814C349.402 275.441 340.968 289.047 332.498 302.634L493.51 11.634C484.817 15.4172 273.635 86.3154 183.929 121.76C75.8219 164.476 233.336 266.37 332.498 302.634C317.246 297.935 302.167 292.306 287.353 286.063C248.819 269.548 211.336 249.805 178.139 222.474C162.147 208.364 144.918 193.389 138.87 167.977C135.931 155.271 141.109 139.83 150.148 130.959C159.03 121.715 169.421 116.277 179.993 111.799C236.209 88.5956 293.295 68.1019 350.453 48.0793C396.487 31.9634 444.491 16.1779 488.99 1.25024ZM734.64 44.7561C758.422 41.128 787.662 42.4071 807.419 61.7317C819.231 72.4414 828.142 90.9448 823.472 107.99C819.288 124.768 808.342 137.215 797.251 147.884C774.363 169.1 747.877 184.339 721.216 198.281C667.37 225.821 611.052 246.807 553.856 265.385C538.716 270.249 523.024 275.078 508.035 279.269C522.765 274.251 538.18 268.646 553.041 263.053C609.169 241.756 664.459 218.643 716.776 189.974C742.622 175.537 768.285 159.796 789.264 139.579C810.832 120.433 822.132 89.7272 798.612 70.8948C783.273 55.9282 758.826 54.1904 736.55 57.6155C599.288 90.8468 483.475 187.147 369.756 272.632C357.048 282.663 344.79 292.456 332.51 302.634C344.22 291.803 355.956 281.372 368.18 270.73C478.228 179.665 589.728 80.2014 734.64 44.7561Z" fill="white"/>
</svg>
