<svg width="825" height="774" viewBox="0 0 825 774" fill="none" xmlns="http://www.w3.org/2000/svg">
<mask id="path-1-outside-1_62_39" maskUnits="userSpaceOnUse" x="137.51" y="-0.366119" width="368" height="303" fill="white">
<rect fill="white" x="137.51" y="-0.366119" width="368" height="303"/>
<path d="M183.929 121.76C75.8215 164.476 233.337 266.37 332.499 302.634L493.51 11.6339C484.821 15.416 273.636 86.3152 183.929 121.76Z"/>
</mask>
<path d="M332.499 302.634C317.823 296.37 303.454 289.318 289.402 281.777C252.931 261.96 217.554 239.337 188.007 211.463C173.759 197.652 159.63 181.213 157.144 164.912C154.418 149.355 169.571 138.386 187.865 131.721C244.149 111.049 301.668 91.6561 358.685 71.6854C405.18 55.3861 450.558 39.7835 498.03 22.0175L483.602 6.15127C438.999 89.8952 395.679 174.349 353.643 259.513C346.559 273.867 339.511 288.24 332.499 302.634C340.969 289.047 349.403 275.44 357.8 261.813C407.623 180.958 456.163 99.3922 503.419 17.1165C509.135 6.588 499.937 -3.61858 488.991 1.25028C444.491 16.178 396.488 31.9633 350.454 48.0793C293.296 68.1019 236.209 88.5956 179.993 111.799C169.421 116.277 159.031 121.714 150.148 130.959C141.109 139.829 135.932 155.271 138.871 167.977C144.919 193.389 162.147 208.364 178.139 222.474C211.337 249.805 248.819 269.547 287.353 286.062C302.168 292.306 317.247 297.934 332.499 302.634ZM332.499 302.634" fill="white" mask="url(#path-1-outside-1_62_39)"/>
<path d="M332.51 302.634C325.739 315.82 319.115 328.373 312.146 341.244C280.965 398.536 247.285 454.628 206.884 505.299C167.292 552.717 115.435 611.339 54.1871 600.521C49.3427 599.282 44.6636 597.413 40.2582 594.972C10.9066 581.007 6.13935 544.861 19.2013 515.408C31.2951 485.454 52.592 458.922 76.7873 436.527C119.114 398.615 169.638 368.657 224.032 350.267C237.747 345.983 252.018 342.257 266.461 342.578C252.045 341.384 237.41 344.319 223.358 347.896C167.484 363.532 115.146 391.54 70.3489 429.292C44.5996 451.796 21.7702 478.591 8.02574 510.969C-7.37083 541.474 -1.59168 590.254 33.8897 606.322C39.2198 609.293 44.9554 611.595 50.8769 613.109C126.122 624.514 175.417 560.265 215.048 511.635C254.726 459.023 286.236 401.309 314.348 342.349C320.632 329.109 326.522 316.189 332.51 302.634Z" fill="white"/>
<path d="M508.036 279.269C523.025 275.078 538.716 270.249 553.856 265.385C611.053 246.807 667.37 225.821 721.216 198.282C747.877 184.339 774.363 169.1 797.252 147.883C808.342 137.215 819.288 124.768 823.473 107.989C828.143 90.9443 819.232 72.4417 807.42 61.732C787.663 42.4068 758.422 41.128 734.64 44.7561C589.728 80.2014 478.229 179.665 368.181 270.729C355.957 281.372 344.221 291.803 332.51 302.634C344.79 292.456 357.048 282.663 369.756 272.632C483.476 187.146 599.288 90.8464 736.55 57.6151C758.826 54.1899 783.273 55.928 798.613 70.895C822.132 89.7275 810.833 120.432 789.264 139.579C768.285 159.796 742.623 175.537 716.776 189.974C664.459 218.643 609.169 241.756 553.042 263.053C538.181 268.646 522.766 274.25 508.036 279.269Z" fill="white"/>
<path d="M332.51 302.634C347.057 299.771 362.079 303.913 374.643 311.014C391.485 320.612 404.545 335.505 415.071 351.692C440.943 410.76 428.315 482.098 451.649 546.547C465.593 589.712 497.223 641.587 550.701 642.764C561.589 643.565 572.307 642.962 582.814 641.869C656.996 628.639 683.239 541.11 663.444 479.03C644.563 423.183 604.19 374.504 551.258 349.771C537.703 343.664 523.247 339.488 508.537 338.162C523.143 340.352 537.176 345.289 550.186 351.996C600.858 378.995 637.869 428.177 654.237 481.874C671.52 539.879 642.38 619.861 581.496 629.001C571.416 630.01 561.425 630.521 551.662 629.799C505.48 628.846 477.613 585.006 462.666 542.619C438.873 481.588 449.989 411.322 419.491 348.681C407.933 332.533 393.662 317.79 375.802 308.833C362.489 302.2 346.884 298.901 332.51 302.634Z" fill="white"/>
<path d="M100.719 696.704V733.734C100.719 737.467 99.5752 740.477 97.2885 742.764C95.0019 745.004 91.9452 746.124 88.1185 746.124C84.1519 746.124 80.9785 744.934 78.5985 742.554C76.2652 740.127 75.0985 736.861 75.0985 732.754H80.0685C80.1152 735.414 80.7685 737.584 82.0285 739.264C83.3352 740.944 85.3652 741.784 88.1185 741.784C90.7319 741.784 92.6685 741.014 93.9285 739.474C95.1885 737.934 95.8185 736.021 95.8185 733.734V696.704H100.719ZM165.12 724.564C165.12 726.244 165.074 727.527 164.98 728.414H133.27C133.41 731.307 134.11 733.781 135.37 735.834C136.63 737.887 138.287 739.451 140.34 740.524C142.394 741.551 144.634 742.064 147.06 742.064C150.234 742.064 152.894 741.294 155.04 739.754C157.234 738.214 158.68 736.137 159.38 733.524H164.56C163.627 737.257 161.62 740.314 158.54 742.694C155.507 745.027 151.68 746.194 147.06 746.194C143.467 746.194 140.247 745.401 137.4 743.814C134.554 742.181 132.314 739.894 130.68 736.954C129.094 733.967 128.3 730.491 128.3 726.524C128.3 722.557 129.094 719.081 130.68 716.094C132.267 713.107 134.484 710.821 137.33 709.234C140.177 707.647 143.42 706.854 147.06 706.854C150.7 706.854 153.874 707.647 156.58 709.234C159.334 710.821 161.434 712.967 162.88 715.674C164.374 718.334 165.12 721.297 165.12 724.564ZM160.15 724.424C160.197 721.577 159.614 719.151 158.4 717.144C157.234 715.137 155.624 713.621 153.57 712.594C151.517 711.567 149.277 711.054 146.85 711.054C143.21 711.054 140.107 712.221 137.54 714.554C134.974 716.887 133.55 720.177 133.27 724.424H160.15ZM209.505 706.714C214.078 706.714 217.812 708.137 220.705 710.984C223.598 713.784 225.045 717.867 225.045 723.234V745.634H220.215V723.794C220.215 719.641 219.165 716.467 217.065 714.274C215.012 712.081 212.188 710.984 208.595 710.984C204.908 710.984 201.968 712.151 199.775 714.484C197.582 716.817 196.485 720.247 196.485 724.774V745.634H191.585V707.414H196.485V713.924C197.698 711.591 199.448 709.817 201.735 708.604C204.022 707.344 206.612 706.714 209.505 706.714ZM271.302 706.714C275.875 706.714 279.609 708.137 282.502 710.984C285.395 713.784 286.842 717.867 286.842 723.234V745.634H282.012V723.794C282.012 719.641 280.962 716.467 278.862 714.274C276.809 712.081 273.985 710.984 270.392 710.984C266.705 710.984 263.765 712.151 261.572 714.484C259.379 716.817 258.282 720.247 258.282 724.774V745.634H253.382V707.414H258.282V713.924C259.495 711.591 261.245 709.817 263.532 708.604C265.819 707.344 268.409 706.714 271.302 706.714ZM317.629 700.204C316.649 700.204 315.809 699.854 315.109 699.154C314.409 698.454 314.059 697.591 314.059 696.564C314.059 695.537 314.409 694.697 315.109 694.044C315.809 693.344 316.649 692.994 317.629 692.994C318.609 692.994 319.449 693.344 320.149 694.044C320.849 694.697 321.199 695.537 321.199 696.564C321.199 697.591 320.849 698.454 320.149 699.154C319.449 699.854 318.609 700.204 317.629 700.204ZM320.079 707.414V745.634H315.179V707.414H320.079ZM363.725 711.544H354.835V745.634H349.935V711.544H344.615V707.414H349.935V704.754C349.935 700.601 350.985 697.544 353.085 695.584C355.232 693.624 358.685 692.644 363.445 692.644V696.844C360.272 696.844 358.032 697.451 356.725 698.664C355.465 699.877 354.835 701.907 354.835 704.754V707.414H363.725V711.544ZM423.519 724.564C423.519 726.244 423.472 727.527 423.379 728.414H391.669C391.809 731.307 392.509 733.781 393.769 735.834C395.029 737.887 396.685 739.451 398.739 740.524C400.792 741.551 403.032 742.064 405.459 742.064C408.632 742.064 411.292 741.294 413.439 739.754C415.632 738.214 417.079 736.137 417.779 733.524H422.959C422.025 737.257 420.019 740.314 416.939 742.694C413.905 745.027 410.079 746.194 405.459 746.194C401.865 746.194 398.645 745.401 395.799 743.814C392.952 742.181 390.712 739.894 389.079 736.954C387.492 733.967 386.699 730.491 386.699 726.524C386.699 722.557 387.492 719.081 389.079 716.094C390.665 713.107 392.882 710.821 395.729 709.234C398.575 707.647 401.819 706.854 405.459 706.854C409.099 706.854 412.272 707.647 414.979 709.234C417.732 710.821 419.832 712.967 421.279 715.674C422.772 718.334 423.519 721.297 423.519 724.564ZM418.549 724.424C418.595 721.577 418.012 719.151 416.799 717.144C415.632 715.137 414.022 713.621 411.969 712.594C409.915 711.567 407.675 711.054 405.249 711.054C401.609 711.054 398.505 712.221 395.939 714.554C393.372 716.887 391.949 720.177 391.669 724.424H418.549ZM454.884 714.204C455.957 711.824 457.59 709.981 459.784 708.674C462.024 707.367 464.754 706.714 467.974 706.714V711.824H466.644C463.097 711.824 460.25 712.781 458.104 714.694C455.957 716.607 454.884 719.804 454.884 724.284V745.634H449.984V707.414H454.884V714.204ZM555.664 745.634L534.454 723.024V745.634H529.554V696.704H534.454V719.594L555.664 696.704H561.894L539.004 721.134L562.104 745.634H555.664ZM618.339 707.414L595.659 763.624H590.549L597.969 745.424L582.289 707.414H587.679L600.699 740.034L613.299 707.414H618.339ZM647.384 693.834V745.634H642.484V693.834H647.384ZM678.43 700.204C677.45 700.204 676.61 699.854 675.91 699.154C675.21 698.454 674.86 697.591 674.86 696.564C674.86 695.537 675.21 694.697 675.91 694.044C676.61 693.344 677.45 692.994 678.43 692.994C679.41 692.994 680.25 693.344 680.95 694.044C681.65 694.697 682 695.537 682 696.564C682 697.591 681.65 698.454 680.95 699.154C680.25 699.854 679.41 700.204 678.43 700.204ZM680.88 707.414V745.634H675.98V707.414H680.88ZM744.056 724.564C744.056 726.244 744.009 727.527 743.916 728.414H712.206C712.346 731.307 713.046 733.781 714.306 735.834C715.566 737.887 717.222 739.451 719.276 740.524C721.329 741.551 723.569 742.064 725.996 742.064C729.169 742.064 731.829 741.294 733.976 739.754C736.169 738.214 737.616 736.137 738.316 733.524H743.496C742.562 737.257 740.556 740.314 737.476 742.694C734.442 745.027 730.616 746.194 725.996 746.194C722.402 746.194 719.182 745.401 716.336 743.814C713.489 742.181 711.249 739.894 709.616 736.954C708.029 733.967 707.236 730.491 707.236 726.524C707.236 722.557 708.029 719.081 709.616 716.094C711.202 713.107 713.419 710.821 716.266 709.234C719.112 707.647 722.356 706.854 725.996 706.854C729.636 706.854 732.809 707.647 735.516 709.234C738.269 710.821 740.369 712.967 741.816 715.674C743.309 718.334 744.056 721.297 744.056 724.564ZM739.086 724.424C739.132 721.577 738.549 719.151 737.336 717.144C736.169 715.137 734.559 713.621 732.506 712.594C730.452 711.567 728.212 711.054 725.786 711.054C722.146 711.054 719.042 712.221 716.476 714.554C713.909 716.887 712.486 720.177 712.206 724.424H739.086Z" fill="white"/>
</svg>
